<?xml version="1.0" encoding="utf-8"?>
<!-- Generator: Adobe Illustrator 16.2.0, SVG Export Plug-In . SVG Version: 6.00 Build 0)  -->
<!DOCTYPE svg PUBLIC "-//W3C//DTD SVG 1.1//EN" "http://www.w3.org/Graphics/SVG/1.1/DTD/svg11.dtd">
<svg version="1.1" id="Layer_1" xmlns="http://www.w3.org/2000/svg" xmlns:xlink="http://www.w3.org/1999/xlink" x="0px" y="0px"
	 width="841.89px" height="595.28px" viewBox="0 0 841.89 595.28" enable-background="new 0 0 841.89 595.28" xml:space="preserve">
<path fill="#6D6E71" d="M468.204,399.39c0,5.535-5.395,10.02-12.048,10.02l0,0c-6.654,0-12.049-4.484-12.049-10.02v-54.522
	c0-5.535,5.395-10.02,12.049-10.02l0,0c6.653,0,12.048,4.484,12.048,10.02V399.39z"/>
<ellipse fill="#6D6E71" cx="441.63" cy="282.858" rx="37.312" ry="37.411"/>
<path fill="#6D6E71" d="M441.46,396.374c0,5.111-5.395,9.256-12.048,9.256l0,0c-6.655,0-12.049-4.145-12.049-9.256v-50.38
	c0-5.113,5.394-9.258,12.049-9.258l0,0c6.653,0,12.048,4.145,12.048,9.258V396.374z"/>
<g>
	<polyline fill="#FFFFFF" points="441.188,265.629 393.992,291.284 393.992,336.736 489.873,336.736 489.873,291.284 
		441.188,265.629 	"/>
	<g>
		<path fill="#00AEEF" d="M437.402,259.153c-15.732,8.551-31.464,17.103-47.196,25.654c-2.3,1.25-3.714,3.897-3.714,6.476
			c0,15.151,0,30.301,0,45.453c0,4.088,3.412,7.5,7.5,7.5c31.96,0,63.921,0,95.881,0c4.089,0,7.5-3.412,7.5-7.5
			c0-15.151,0-30.302,0-45.453c0-2.552-1.407-5.26-3.715-6.476c-16.229-8.551-32.457-17.103-48.686-25.654
			c-8.549-4.505-16.131,8.441-7.57,12.952c16.229,8.551,32.457,17.103,48.686,25.654c-1.238-2.159-2.477-4.317-3.715-6.476
			c0,15.151,0,30.301,0,45.453c2.5-2.5,5-5,7.5-7.5c-31.96,0-63.921,0-95.881,0c2.5,2.5,5,5,7.5,7.5c0-15.151,0-30.302,0-45.453
			c-1.238,2.159-2.477,4.317-3.714,6.476c15.731-8.551,31.464-17.103,47.195-25.654
			C453.473,267.485,445.902,254.533,437.402,259.153L437.402,259.153z"/>
	</g>
</g>
<circle fill="#FFFFFF" stroke="#FFFFFF" stroke-width="0.75" stroke-miterlimit="10" cx="426.896" cy="340.732" r="8.541"/>
<rect x="417.411" y="354.238" fill="#6D6E71" width="21.755" height="9.486"/>
<rect x="416.813" y="302.775" fill="#00AEEF" stroke="#00AEEF" stroke-miterlimit="10" width="18.162" height="18"/>
<rect x="448.889" y="302.775" fill="#00AEEF" stroke="#00AEEF" stroke-miterlimit="10" width="18.161" height="38.055"/>
<circle fill="#FFFFFF" stroke="#FFFFFF" stroke-width="0.75" stroke-miterlimit="10" cx="459.272" cy="340.406" r="8.542"/>
<rect x="445.481" y="353.912" fill="#6D6E71" width="22.723" height="9.486"/>
<g>
	<g>
		<ellipse fill="#6D6E71" cx="441.46" cy="233.086" rx="19.665" ry="22.278"/>
		<g>
			<path fill="#FFFFFF" d="M458.625,233.086c-0.282,9.899-6.567,19.39-17.165,19.778c-10.587,0.388-16.898-10.473-17.164-19.778
				c-0.282-9.894,6.987-19.405,17.164-19.778C452.047,212.92,458.359,223.781,458.625,233.086c0.092,3.217,5.092,3.226,5,0
				c-0.363-12.707-8.793-24.288-22.165-24.778c-13.36-0.49-21.823,12.827-22.164,24.778c-0.363,12.701,9.324,24.307,22.164,24.778
				c13.36,0.49,21.824-12.826,22.165-24.778C463.717,229.86,458.717,229.869,458.625,233.086z"/>
		</g>
	</g>
</g>
<g>
	<polygon fill="#6D6E71" points="430.606,203.535 449.956,203.535 459.867,223.038 475.441,234.21 405.593,234.21 424.471,218.872 	
		"/>
	<g>
		<path fill="#FFFFFF" d="M430.606,205.41c5.56,0,11.12,0,16.681,0c0.808,0,1.615,0,2.422,0c-0.878,0-1.762-1.696-0.758,0.279
			c1.521,2.996,3.045,5.991,4.566,8.987c1.855,3.651,3.222,8.416,6.633,10.863c4.781,3.43,9.563,6.86,14.345,10.291
			c0.315-1.165,0.631-2.33,0.946-3.494c-23.283,0-46.566,0-69.849,0c0.442,1.067,0.884,2.134,1.326,3.201
			c5.979-4.858,11.958-9.716,17.937-14.574c1.86-1.511,2.361-3.936,3.236-6.124c1.441-3.602,2.882-7.204,4.322-10.805
			c0.899-2.247-2.729-3.213-3.615-0.997c-1.326,3.313-2.65,6.626-3.977,9.938c-0.639,1.597-1.277,3.193-1.916,4.79
			c-0.486,1.217,0.367-0.323,0.079-0.088c-0.39,0.316-0.779,0.633-1.169,0.95c-5.85,4.753-11.7,9.506-17.549,14.259
			c-1.321,1.073-0.188,3.201,1.326,3.201c23.282,0,46.565,0,69.849,0c1.989,0,2.394-2.456,0.946-3.494
			c-2.729-1.958-5.46-3.917-8.189-5.875c-1.7-1.22-3.4-2.439-5.101-3.659c-0.606-0.435-1.212-0.87-1.818-1.305
			c-1.016-0.729,0.349,0.618,0.103,0.133c-3.27-6.433-6.538-12.865-9.807-19.297c-0.294-0.579-0.989-0.929-1.619-0.929
			c-6.45,0-12.899,0-19.35,0C428.188,201.66,428.188,205.41,430.606,205.41z"/>
	</g>
</g>
</svg>
