<?xml version="1.0" encoding="utf-8"?>
<!-- Generator: Adobe Illustrator 16.2.0, SVG Export Plug-In . SVG Version: 6.00 Build 0)  -->
<!DOCTYPE svg PUBLIC "-//W3C//DTD SVG 1.1//EN" "http://www.w3.org/Graphics/SVG/1.1/DTD/svg11.dtd">
<svg version="1.1" id="Layer_1" xmlns="http://www.w3.org/2000/svg" xmlns:xlink="http://www.w3.org/1999/xlink" x="0px" y="0px"
	 width="595.28px" height="841.89px" viewBox="0 0 595.28 841.89" enable-background="new 0 0 595.28 841.89" xml:space="preserve">
<g>
	<path fill="#6D6E71" d="M303.391,255.413c0,5.534-5.394,10.019-12.048,10.019l0,0c-6.654,0-12.049-4.485-12.049-10.019v-54.524
		c0-5.534,5.395-10.018,12.049-10.018l0,0c6.654,0,12.048,4.484,12.048,10.018V255.413z"/>
	<ellipse fill="#6D6E71" cx="276.816" cy="138.88" rx="37.312" ry="37.412"/>
	<path fill="#6D6E71" d="M276.646,252.396c0,5.113-5.394,9.257-12.048,9.257l0,0c-6.655,0-12.049-4.145-12.049-9.257v-50.38
		c0-5.113,5.394-9.258,12.049-9.258l0,0c6.654,0,12.048,4.145,12.048,9.258V252.396z"/>
	<g>
		<polyline fill="#FFFFFF" points="276.374,121.651 229.178,147.306 229.178,192.758 325.06,192.758 325.06,147.306 
			276.374,121.651 		"/>
		<g>
			<path fill="#00AEEF" d="M272.589,115.175c-15.732,8.551-31.464,17.103-47.196,25.654c-2.3,1.25-3.714,3.897-3.714,6.476
				c0,15.151,0,30.301,0,45.452c0,4.088,3.412,7.5,7.5,7.5c31.96,0,63.921,0,95.881,0c4.089,0,7.5-3.412,7.5-7.5
				c0-15.151,0-30.301,0-45.452c0-2.552-1.407-5.26-3.715-6.476c-16.229-8.551-32.457-17.103-48.686-25.654
				c-8.549-4.505-16.131,8.441-7.57,12.952c16.229,8.551,32.457,17.103,48.686,25.654c-1.238-2.159-2.477-4.317-3.715-6.476
				c0,15.151,0,30.301,0,45.452c2.5-2.5,5-5,7.5-7.5c-31.96,0-63.921,0-95.881,0c2.5,2.5,5,5,7.5,7.5c0-15.151,0-30.301,0-45.452
				c-1.238,2.159-2.477,4.317-3.714,6.476c15.731-8.551,31.464-17.103,47.195-25.654
				C288.659,123.507,281.088,110.555,272.589,115.175L272.589,115.175z"/>
		</g>
	</g>
	<circle fill="#FFFFFF" stroke="#FFFFFF" stroke-width="0.75" stroke-miterlimit="10" cx="262.082" cy="196.753" r="8.541"/>
	<rect x="252.597" y="210.261" fill="#6D6E71" width="21.755" height="9.485"/>
	<rect x="252" y="158.797" fill="#00AEEF" stroke="#00AEEF" stroke-miterlimit="10" width="18.162" height="17.999"/>
	<rect x="284.075" y="158.797" fill="#00AEEF" stroke="#00AEEF" stroke-miterlimit="10" width="18.161" height="38.054"/>
	<circle fill="#FFFFFF" stroke="#FFFFFF" stroke-width="0.75" stroke-miterlimit="10" cx="294.458" cy="196.427" r="8.542"/>
	<rect x="280.668" y="209.934" fill="#6D6E71" width="22.722" height="9.486"/>
	<g>
		<g>
			<ellipse fill="#6D6E71" cx="276.647" cy="89.108" rx="19.665" ry="22.278"/>
			<g>
				<path fill="#FFFFFF" d="M293.812,89.108c-0.283,9.899-6.567,19.39-17.165,19.778c-10.587,0.388-16.898-10.473-17.164-19.778
					c-0.283-9.895,6.987-19.405,17.164-19.778C287.234,68.942,293.546,79.803,293.812,89.108c0.092,3.217,5.092,3.226,5,0
					c-0.363-12.707-8.793-24.288-22.165-24.778c-13.36-0.49-21.823,12.827-22.164,24.778c-0.363,12.701,9.324,24.307,22.164,24.778
					c13.361,0.49,21.824-12.826,22.165-24.778C298.904,85.882,293.903,85.891,293.812,89.108z"/>
			</g>
		</g>
	</g>
	<g>
		<polygon fill="#6D6E71" points="265.793,59.557 285.143,59.557 295.054,79.06 310.628,90.232 240.78,90.232 259.657,74.894 		"/>
		<g>
			<path fill="#FFFFFF" d="M265.793,61.432c5.561,0,11.121,0,16.681,0c0.808,0,1.615,0,2.422,0c-0.878,0-1.762-1.696-0.759,0.279
				c1.522,2.996,3.044,5.991,4.567,8.987c1.855,3.652,3.221,8.416,6.632,10.863c4.782,3.43,9.564,6.86,14.345,10.291
				c0.315-1.165,0.631-2.33,0.946-3.494c-23.283,0-46.565,0-69.848,0c0.442,1.067,0.884,2.134,1.326,3.201
				c5.979-4.858,11.958-9.716,17.937-14.574c1.86-1.511,2.361-3.936,3.236-6.124c1.441-3.602,2.882-7.204,4.323-10.805
				c0.899-2.247-2.729-3.213-3.616-0.997c-1.325,3.313-2.65,6.626-3.976,9.939c-0.639,1.596-1.277,3.192-1.916,4.789
				c-0.487,1.217,0.367-0.323,0.079-0.088c-0.39,0.316-0.779,0.633-1.169,0.95c-5.85,4.753-11.699,9.506-17.549,14.259
				c-1.321,1.073-0.188,3.201,1.326,3.201c23.283,0,46.565,0,69.848,0c1.989,0,2.394-2.456,0.946-3.494
				c-2.729-1.958-5.46-3.917-8.189-5.875c-1.7-1.22-3.4-2.439-5.101-3.659c-0.606-0.435-1.212-0.87-1.818-1.305
				c-1.016-0.729,0.349,0.618,0.102,0.133c-3.269-6.433-6.537-12.865-9.806-19.297c-0.294-0.579-0.989-0.929-1.619-0.929
				c-6.45,0-12.9,0-19.35,0C263.375,57.682,263.375,61.432,265.793,61.432z"/>
		</g>
	</g>
	<text transform="matrix(1 0 0 1 30.9883 331.2314)"><tspan x="0" y="0" fill="#6D6E71" font-family="'MyriadPro-Semibold'" font-size="47.7105">Der Immobilien</tspan><tspan x="320.991" y="0" fill="#27AAE1" font-family="'MyriadPro-BoldIt'" font-size="56.6335">FISCHER</tspan></text>
</g>
</svg>
