<?xml version="1.0" encoding="utf-8"?>
<!-- Generator: Adobe Illustrator 16.2.0, SVG Export Plug-In . SVG Version: 6.00 Build 0)  -->
<!DOCTYPE svg PUBLIC "-//W3C//DTD SVG 1.1//EN" "http://www.w3.org/Graphics/SVG/1.1/DTD/svg11.dtd">
<svg version="1.1" id="Layer_1" xmlns="http://www.w3.org/2000/svg" xmlns:xlink="http://www.w3.org/1999/xlink" x="0px" y="0px"
	 width="841.89px" height="595.28px" viewBox="0 0 841.89 595.28" enable-background="new 0 0 841.89 595.28" xml:space="preserve">
<g>
	<g>
		<path fill="#808285" d="M467.125,340.375c0,5.535-5.394,10.02-12.047,10.02l0,0c-6.654,0-12.049-4.484-12.049-10.02v-54.523
			c0-5.534,5.395-10.019,12.049-10.019l0,0c6.653,0,12.047,4.484,12.047,10.019V340.375z"/>
		<ellipse fill="#808285" cx="440.552" cy="223.844" rx="37.312" ry="37.412"/>
		<path fill="#808285" d="M440.381,337.359c0,5.111-5.394,9.256-12.047,9.256l0,0c-6.655,0-12.049-4.145-12.049-9.256v-50.38
			c0-5.113,5.394-9.258,12.049-9.258l0,0c6.653,0,12.047,4.145,12.047,9.258V337.359z"/>
		<g>
			<polyline fill="#FFFFFF" points="440.109,206.615 392.913,232.269 392.913,277.721 488.795,277.721 488.795,232.269 
				440.109,206.615 			"/>
			<g>
				<path fill="#27AAE1" d="M436.324,200.139c-15.732,8.551-31.464,17.103-47.196,25.654c-2.301,1.25-3.715,3.897-3.715,6.476
					c0,15.151,0,30.301,0,45.452c0,4.088,3.412,7.5,7.5,7.5c31.961,0,63.921,0,95.882,0c4.089,0,7.5-3.412,7.5-7.5
					c0-15.151,0-30.301,0-45.452c0-2.552-1.407-5.26-3.715-6.476c-16.229-8.551-32.457-17.103-48.686-25.654
					c-8.549-4.505-16.131,8.441-7.57,12.952c16.229,8.551,32.457,17.103,48.686,25.654c-1.238-2.159-2.477-4.317-3.715-6.476
					c0,15.151,0,30.301,0,45.452c2.5-2.5,5-5,7.5-7.5c-31.961,0-63.921,0-95.882,0c2.5,2.5,5,5,7.5,7.5c0-15.151,0-30.301,0-45.452
					c-1.238,2.159-2.477,4.317-3.715,6.476c15.732-8.551,31.465-17.103,47.196-25.654
					C452.395,208.471,444.824,195.519,436.324,200.139L436.324,200.139z"/>
			</g>
		</g>
		<circle fill="#FFFFFF" stroke="#FFFFFF" stroke-width="0.75" stroke-miterlimit="10" cx="425.817" cy="281.717" r="8.541"/>
		<rect x="416.332" y="295.224" fill="#808285" width="21.756" height="9.485"/>
		<rect x="415.735" y="243.761" fill="#27AAE1" width="18.161" height="18"/>
		<rect x="447.811" y="243.761" fill="#27AAE1" width="18.16" height="38.054"/>
		<circle fill="#FFFFFF" stroke="#FFFFFF" stroke-width="0.75" stroke-miterlimit="10" cx="458.193" cy="281.391" r="8.541"/>
		<rect x="444.403" y="294.897" fill="#808285" width="22.722" height="9.486"/>
		<g>
			<g>
				<ellipse fill="#808285" cx="440.382" cy="174.071" rx="19.665" ry="22.278"/>
				<g>
					<path fill="#FFFFFF" d="M457.547,174.071c-0.283,9.899-6.568,19.39-17.166,19.778c-10.586,0.388-16.898-10.473-17.164-19.778
						c-0.282-9.895,6.987-19.405,17.164-19.778C450.969,153.905,457.281,164.766,457.547,174.071c0.092,3.217,5.092,3.226,5,0
						c-0.363-12.707-8.793-24.288-22.166-24.778c-13.359-0.49-21.822,12.827-22.164,24.778
						c-0.363,12.701,9.324,24.307,22.164,24.778c13.361,0.49,21.824-12.826,22.166-24.778
						C462.639,170.845,457.639,170.854,457.547,174.071z"/>
				</g>
			</g>
		</g>
		<g>
			<polygon fill="#808285" points="429.527,144.52 448.878,144.52 458.789,164.023 474.363,175.196 404.515,175.196 
				423.393,159.857 			"/>
			<g>
				<path fill="#FFFFFF" d="M429.527,146.395c5.561,0,11.121,0,16.682,0c0.808,0,1.615,0,2.422,0c-0.878,0-1.762-1.696-0.758,0.279
					c1.521,2.996,3.044,5.991,4.566,8.987c1.855,3.651,3.221,8.416,6.632,10.863c4.782,3.43,9.563,6.86,14.345,10.291
					c0.316-1.165,0.631-2.33,0.947-3.494c-23.283,0-46.566,0-69.849,0c0.442,1.067,0.884,2.134,1.326,3.201
					c5.979-4.858,11.958-9.716,17.937-14.574c1.859-1.511,2.36-3.936,3.236-6.124c1.44-3.602,2.881-7.204,4.322-10.805
					c0.898-2.247-2.729-3.213-3.616-0.997c-1.325,3.313-2.65,6.626-3.976,9.939c-0.639,1.596-1.277,3.192-1.916,4.789
					c-0.487,1.217,0.367-0.323,0.079-0.088c-0.39,0.316-0.779,0.633-1.169,0.95c-5.85,4.753-11.699,9.506-17.549,14.259
					c-1.321,1.073-0.188,3.201,1.326,3.201c23.282,0,46.565,0,69.849,0c1.988,0,2.394-2.456,0.945-3.494
					c-2.729-1.958-5.459-3.917-8.189-5.875c-1.699-1.22-3.4-2.439-5.1-3.659c-0.606-0.435-1.213-0.87-1.819-1.305
					c-1.015-0.729,0.349,0.618,0.103,0.133c-3.269-6.433-6.537-12.865-9.806-19.297c-0.294-0.579-0.989-0.929-1.619-0.929
					c-6.45,0-12.899,0-19.351,0C427.109,142.645,427.109,146.395,429.527,146.395z"/>
			</g>
		</g>
	</g>
	<path fill="#808285" d="M188.761,378.793c2.592-0.432,5.905-0.672,9.409-0.672c6.049,0,10.225,1.248,13.201,3.744
		c3.121,2.545,5.041,6.385,5.041,11.906c0,5.76-1.968,10.08-5.041,12.864c-3.216,2.929-8.353,4.417-14.641,4.417
		c-3.456,0-6.048-0.192-7.969-0.433V378.793z M194.666,406.204c0.816,0.144,2.064,0.144,3.264,0.144
		c7.681,0.049,12.241-4.176,12.241-12.385c0.048-7.152-4.081-11.232-11.473-11.232c-1.872,0-3.216,0.144-4.032,0.336V406.204z"/>
	<path fill="#808285" d="M225.482,400.684c0.144,4.225,3.456,6.049,7.201,6.049c2.736,0,4.704-0.385,6.48-1.057l0.864,4.08
		c-2.016,0.816-4.8,1.44-8.161,1.44c-7.584,0-12.049-4.656-12.049-11.81c0-6.48,3.937-12.576,11.425-12.576
		c7.585,0,10.081,6.24,10.081,11.377c0,1.104-0.096,1.968-0.192,2.496H225.482z M235.755,396.555
		c0.048-2.16-0.912-5.712-4.849-5.712c-3.648,0-5.185,3.312-5.424,5.712H235.755z"/>
	<path fill="#808285" d="M246.073,394.875c0-3.168-0.048-5.424-0.192-7.537h5.137l0.192,4.465h0.192
		c1.152-3.313,3.889-4.992,6.385-4.992c0.576,0,0.912,0.048,1.392,0.144v5.569c-0.48-0.097-1.008-0.193-1.728-0.193
		c-2.833,0-4.752,1.824-5.281,4.465c-0.096,0.528-0.192,1.152-0.192,1.824v12.098h-5.904V394.875z"/>
	<path fill="#808285" d="M279.24,378.361v32.355h-5.905v-32.355H279.24z"/>
	<path fill="#808285" d="M286.055,394.299c0-2.688-0.048-4.944-0.192-6.961h5.089l0.24,3.457h0.144
		c1.152-1.824,3.264-3.984,7.201-3.984c3.072,0,5.472,1.729,6.48,4.32h0.096c0.816-1.297,1.776-2.256,2.88-2.929
		c1.296-0.911,2.785-1.392,4.705-1.392c3.888,0,7.825,2.641,7.825,10.129v13.777h-5.761v-12.914c0-3.888-1.344-6.191-4.176-6.191
		c-2.016,0-3.504,1.439-4.128,3.119c-0.144,0.576-0.288,1.297-0.288,1.969v14.018h-5.761V397.18c0-3.265-1.296-5.568-4.032-5.568
		c-2.208,0-3.696,1.728-4.225,3.359c-0.24,0.576-0.336,1.248-0.336,1.92v13.826h-5.76V394.299z"/>
	<path fill="#808285" d="M326.759,394.299c0-2.688-0.048-4.944-0.192-6.961h5.088l0.24,3.457h0.144
		c1.152-1.824,3.264-3.984,7.201-3.984c3.072,0,5.473,1.729,6.48,4.32h0.096c0.816-1.297,1.776-2.256,2.88-2.929
		c1.296-0.911,2.785-1.392,4.705-1.392c3.888,0,7.825,2.641,7.825,10.129v13.777h-5.76v-12.914c0-3.888-1.344-6.191-4.177-6.191
		c-2.016,0-3.504,1.439-4.128,3.119c-0.144,0.576-0.288,1.297-0.288,1.969v14.018h-5.761V397.18c0-3.265-1.296-5.568-4.032-5.568
		c-2.208,0-3.696,1.728-4.225,3.359c-0.24,0.576-0.336,1.248-0.336,1.92v13.826h-5.76V394.299z"/>
	<path fill="#808285" d="M389.688,398.811c0,8.594-6.048,12.434-12.001,12.434c-6.625,0-11.713-4.561-11.713-12.049
		c0-7.681,5.041-12.385,12.097-12.385C385.032,386.811,389.688,391.707,389.688,398.811z M372.071,399.051
		c0,4.513,2.208,7.922,5.808,7.922c3.36,0,5.713-3.313,5.713-8.018c0-3.648-1.632-7.824-5.665-7.824
		C373.751,391.131,372.071,395.163,372.071,399.051z"/>
	<path fill="#808285" d="M394.342,410.717c0.096-1.584,0.192-4.177,0.192-6.577v-27.507h5.904v13.922h0.096
		c1.44-2.256,3.984-3.744,7.488-3.744c5.712,0,9.792,4.752,9.746,11.857c0,8.4-5.329,12.576-10.609,12.576
		c-3.024,0-5.712-1.152-7.393-4.032h-0.096l-0.288,3.505H394.342z M400.438,401.067c0,0.479,0.048,0.96,0.144,1.392
		c0.624,2.354,2.688,4.129,5.232,4.129c3.696,0,5.953-2.977,5.953-7.681c0-4.128-1.968-7.489-5.905-7.489
		c-2.4,0-4.56,1.729-5.232,4.32c-0.096,0.433-0.192,0.961-0.192,1.537V401.067z"/>
	<path fill="#808285" d="M428.902,380.81c0,1.776-1.296,3.169-3.36,3.169c-1.969,0-3.265-1.393-3.265-3.169
		c0-1.824,1.345-3.216,3.313-3.216C427.606,377.594,428.854,378.985,428.902,380.81z M422.614,410.717v-23.379h5.951v23.379H422.614
		z"/>
	<path fill="#808285" d="M434.901,376.633h5.952v34.084h-5.952V376.633z"/>
	<path fill="#808285" d="M453.526,380.81c0,1.776-1.297,3.169-3.361,3.169c-1.968,0-3.264-1.393-3.264-3.169
		c0-1.824,1.344-3.216,3.313-3.216C452.229,377.594,453.478,378.985,453.526,380.81z M447.237,410.717v-23.379h5.952v23.379H447.237
		z"/>
	<path fill="#808285" d="M463.7,400.684c0.145,4.225,3.457,6.049,7.201,6.049c2.736,0,4.705-0.385,6.48-1.057l0.865,4.08
		c-2.018,0.816-4.801,1.44-8.162,1.44c-7.584,0-12.049-4.656-12.049-11.81c0-6.48,3.938-12.576,11.426-12.576
		c7.584,0,10.08,6.24,10.08,11.377c0,1.104-0.096,1.968-0.191,2.496H463.7z M473.974,396.555c0.049-2.16-0.912-5.712-4.848-5.712
		c-3.648,0-5.186,3.312-5.426,5.712H473.974z"/>
	<path fill="#808285" d="M484.292,394.299c0-2.688-0.047-4.944-0.191-6.961h5.186l0.287,3.505h0.145
		c1.008-1.824,3.553-4.032,7.439-4.032c4.08,0,8.305,2.641,8.305,10.033v13.873h-5.904v-13.201c0-3.361-1.248-5.904-4.465-5.904
		c-2.352,0-3.984,1.68-4.607,3.455c-0.191,0.529-0.24,1.248-0.24,1.921v13.729h-5.953V394.299z"/>
	<path fill="#27AAE1" d="M526.78,372.541h22.373l-1.359,6.967h-14.16l-1.756,8.949h13.311l-1.359,6.91h-13.254l-2.889,15.35h-8.156
		L526.78,372.541z"/>
	<path fill="#27AAE1" d="M563.706,372.541l-7.25,38.176H548.3l7.25-38.176H563.706z"/>
	<path fill="#27AAE1" d="M565.63,401.881c2.266,1.359,5.494,2.436,9.006,2.436c3.172,0,6.061-1.473,6.061-4.475
		c0-2.152-1.643-3.568-5.154-5.381c-4.078-2.209-7.93-5.154-7.93-10.139c0-7.703,6.74-12.404,15.066-12.404
		c4.645,0,7.363,1.02,9.006,1.926l-2.549,6.797c-1.246-0.68-3.965-1.756-7.137-1.699c-3.795,0-5.777,1.926-5.777,4.021
		c0,2.209,2.322,3.568,5.551,5.381c4.645,2.436,7.59,5.551,7.59,10.082c0,8.496-7.023,12.857-15.52,12.857
		c-5.324,0-9.119-1.359-10.932-2.719L565.63,401.881z"/>
	<path fill="#27AAE1" d="M621.134,409.641c-2.039,0.906-5.494,1.643-10.082,1.643c-10.082,0-16.879-6.117-16.879-16.199
		c0-8.553,3.852-15.236,9.629-19.088c3.965-2.775,8.666-4.078,14.047-4.078c4.135,0,7.25,0.963,8.326,1.643l-2.209,6.627
		c-1.133-0.566-3.625-1.246-6.91-1.246s-6.4,1.02-8.723,2.945c-3.229,2.605-5.268,6.967-5.268,12.291
		c0,6.061,3.398,10.139,10.139,10.139c2.662,0,5.324-0.453,7.25-1.246L621.134,409.641z"/>
	<path fill="#27AAE1" d="M640.897,372.541l-2.832,14.896h13.877l2.832-14.896h8.156l-7.25,38.176h-8.156l3.002-16.029h-13.82
		l-3.059,16.029h-8.156l7.25-38.176H640.897z"/>
	<path fill="#27AAE1" d="M688.017,394.518h-13.594l-1.756,9.232h15.236l-1.303,6.967h-23.393l7.25-38.176h22.6l-1.359,6.967h-14.387
		l-1.586,8.156h13.594L688.017,394.518z"/>
	<path fill="#27AAE1" d="M699.681,373.277c2.549-0.623,6.4-1.02,10.195-1.02c3.625,0,7.363,0.566,10.025,2.209
		c2.492,1.473,4.248,3.908,4.248,7.477c0,5.664-3.795,9.176-8.666,10.762v0.227c2.266,0.963,3.229,3.512,3.625,6.967
		c0.453,4.248,0.793,9.232,1.473,10.818h-8.383c-0.34-1.02-0.736-4.305-1.133-9.006c-0.34-4.645-1.926-6.061-5.154-6.061h-2.492
		l-2.832,15.066h-8.1L699.681,373.277z M704.608,389.533h3.398c4.418,0,7.646-2.662,7.646-6.4c0-3.059-2.605-4.418-5.834-4.418
		c-1.529,0-2.492,0.113-3.172,0.283L704.608,389.533z"/>
</g>
</svg>
