<?xml version="1.0" encoding="utf-8"?>
<!-- Generator: Adobe Illustrator 16.2.0, SVG Export Plug-In . SVG Version: 6.00 Build 0)  -->
<!DOCTYPE svg PUBLIC "-//W3C//DTD SVG 1.1//EN" "http://www.w3.org/Graphics/SVG/1.1/DTD/svg11.dtd">
<svg version="1.1" id="Layer_1" xmlns="http://www.w3.org/2000/svg" xmlns:xlink="http://www.w3.org/1999/xlink" x="0px" y="0px"
	 width="841.89px" height="595.28px" viewBox="0 0 841.89 595.28" enable-background="new 0 0 841.89 595.28" xml:space="preserve">
<path fill="#808285" d="M120.948,138.855c2.592-0.433,5.905-0.672,9.409-0.672c6.049,0,10.225,1.248,13.201,3.744
	c3.121,2.544,5.041,6.385,5.041,11.904c0,5.761-1.968,10.081-5.041,12.865c-3.216,2.928-8.353,4.416-14.641,4.416
	c-3.456,0-6.048-0.191-7.969-0.432V138.855z M126.853,166.266c0.816,0.145,2.064,0.145,3.264,0.145
	c7.681,0.047,12.241-4.178,12.241-12.386c0.048-7.153-4.081-11.233-11.473-11.233c-1.872,0-3.216,0.145-4.032,0.336V166.266z"/>
<path fill="#808285" d="M157.668,160.745c0.144,4.224,3.456,6.048,7.201,6.048c2.736,0,4.704-0.383,6.48-1.056l0.864,4.081
	c-2.016,0.815-4.8,1.439-8.161,1.439c-7.584,0-12.049-4.656-12.049-11.809c0-6.48,3.937-12.578,11.425-12.578
	c7.585,0,10.081,6.241,10.081,11.377c0,1.105-0.096,1.969-0.192,2.497H157.668z M167.941,156.617
	c0.048-2.16-0.912-5.713-4.849-5.713c-3.648,0-5.185,3.313-5.424,5.713H167.941z"/>
<path fill="#808285" d="M178.26,154.937c0-3.169-0.048-5.425-0.192-7.536h5.137l0.192,4.464h0.192
	c1.152-3.313,3.889-4.993,6.385-4.993c0.576,0,0.912,0.049,1.392,0.145v5.568c-0.48-0.096-1.008-0.191-1.728-0.191
	c-2.833,0-4.752,1.824-5.281,4.464c-0.096,0.528-0.192,1.152-0.192,1.824v12.097h-5.904V154.937z"/>
<path fill="#808285" d="M211.427,138.423v32.354h-5.905v-32.354H211.427z"/>
<path fill="#808285" d="M218.242,154.36c0-2.688-0.048-4.944-0.192-6.96h5.089l0.24,3.455h0.144
	c1.152-1.824,3.264-3.984,7.201-3.984c3.072,0,5.472,1.729,6.48,4.32h0.096c0.816-1.295,1.776-2.256,2.88-2.928
	c1.296-0.912,2.785-1.393,4.705-1.393c3.888,0,7.825,2.641,7.825,10.129v13.777h-5.761v-12.912c0-3.889-1.344-6.193-4.176-6.193
	c-2.016,0-3.504,1.44-4.128,3.121c-0.144,0.576-0.288,1.295-0.288,1.968v14.017h-5.761V157.24c0-3.264-1.296-5.568-4.032-5.568
	c-2.208,0-3.696,1.729-4.225,3.361c-0.24,0.575-0.336,1.248-0.336,1.92v13.824h-5.76V154.36z"/>
<path fill="#808285" d="M258.945,154.36c0-2.688-0.048-4.944-0.192-6.96h5.088l0.24,3.455h0.144
	c1.152-1.824,3.264-3.984,7.201-3.984c3.072,0,5.473,1.729,6.48,4.32h0.096c0.816-1.295,1.776-2.256,2.88-2.928
	c1.296-0.912,2.785-1.393,4.705-1.393c3.888,0,7.825,2.641,7.825,10.129v13.777h-5.76v-12.912c0-3.889-1.344-6.193-4.177-6.193
	c-2.016,0-3.504,1.44-4.128,3.121c-0.144,0.576-0.288,1.295-0.288,1.968v14.017h-5.761V157.24c0-3.264-1.296-5.568-4.032-5.568
	c-2.208,0-3.696,1.729-4.225,3.361c-0.24,0.575-0.336,1.248-0.336,1.92v13.824h-5.76V154.36z"/>
<path fill="#808285" d="M321.875,158.873c0,8.592-6.048,12.433-12.001,12.433c-6.625,0-11.713-4.56-11.713-12.049
	c0-7.681,5.041-12.386,12.097-12.386C317.218,146.871,321.875,151.768,321.875,158.873z M304.257,159.113
	c0,4.512,2.208,7.92,5.808,7.92c3.36,0,5.713-3.313,5.713-8.017c0-3.647-1.632-7.825-5.665-7.825
	C305.938,151.191,304.257,155.225,304.257,159.113z"/>
<path fill="#808285" d="M326.528,170.777c0.097-1.584,0.192-4.176,0.192-6.576v-27.506h5.904v13.921h0.096
	c1.44-2.257,3.984-3.745,7.488-3.745c5.713,0,9.793,4.753,9.746,11.857c0,8.4-5.329,12.577-10.609,12.577
	c-3.024,0-5.713-1.151-7.393-4.032h-0.096l-0.289,3.504H326.528z M332.625,161.129c0,0.48,0.048,0.96,0.145,1.393
	c0.623,2.352,2.688,4.128,5.232,4.128c3.695,0,5.952-2.976,5.952-7.681c0-4.129-1.968-7.488-5.905-7.488
	c-2.399,0-4.56,1.729-5.232,4.32c-0.096,0.432-0.191,0.96-0.191,1.535V161.129z"/>
<path fill="#808285" d="M361.089,140.871c0,1.776-1.296,3.168-3.36,3.168c-1.969,0-3.265-1.392-3.265-3.168
	c0-1.824,1.345-3.217,3.313-3.217C359.793,137.654,361.041,139.047,361.089,140.871z M354.801,170.777V147.4h5.951v23.377H354.801z"
	/>
<path fill="#808285" d="M367.088,136.695h5.952v34.082h-5.952V136.695z"/>
<path fill="#808285" d="M385.713,140.871c0,1.776-1.297,3.168-3.361,3.168c-1.968,0-3.264-1.392-3.264-3.168
	c0-1.824,1.344-3.217,3.313-3.217C384.416,137.654,385.664,139.047,385.713,140.871z M379.424,170.777V147.4h5.952v23.377H379.424z"
	/>
<path fill="#808285" d="M395.887,160.745c0.145,4.224,3.457,6.048,7.201,6.048c2.736,0,4.705-0.383,6.48-1.056l0.865,4.081
	c-2.018,0.815-4.801,1.439-8.162,1.439c-7.584,0-12.049-4.656-12.049-11.809c0-6.48,3.938-12.578,11.426-12.578
	c7.584,0,10.08,6.241,10.08,11.377c0,1.105-0.096,1.969-0.191,2.497H395.887z M406.16,156.617c0.049-2.16-0.912-5.713-4.848-5.713
	c-3.648,0-5.186,3.313-5.426,5.713H406.16z"/>
<path fill="#808285" d="M416.479,154.36c0-2.688-0.047-4.944-0.191-6.96h5.186l0.287,3.504h0.145
	c1.008-1.824,3.553-4.033,7.439-4.033c4.08,0,8.305,2.641,8.305,10.033v13.873h-5.904v-13.201c0-3.359-1.248-5.904-4.465-5.904
	c-2.352,0-3.984,1.681-4.607,3.457c-0.191,0.527-0.24,1.248-0.24,1.92v13.729h-5.953V154.36z"/>
<path fill="#27AAE1" d="M458.967,132.602h22.373l-1.359,6.967h-14.16l-1.756,8.949h13.311l-1.359,6.91h-13.254l-2.889,15.35h-8.156
	L458.967,132.602z"/>
<path fill="#27AAE1" d="M495.893,132.602l-7.25,38.176h-8.156l7.25-38.176H495.893z"/>
<path fill="#27AAE1" d="M497.816,161.941c2.266,1.359,5.494,2.436,9.006,2.436c3.172,0,6.061-1.473,6.061-4.475
	c0-2.152-1.643-3.568-5.154-5.381c-4.078-2.209-7.93-5.154-7.93-10.139c0-7.703,6.74-12.404,15.066-12.404
	c4.645,0,7.363,1.02,9.006,1.926l-2.549,6.797c-1.246-0.68-3.965-1.756-7.137-1.699c-3.795,0-5.777,1.926-5.777,4.021
	c0,2.209,2.322,3.568,5.551,5.381c4.645,2.436,7.59,5.551,7.59,10.082c0,8.496-7.023,12.857-15.52,12.857
	c-5.324,0-9.119-1.359-10.932-2.719L497.816,161.941z"/>
<path fill="#27AAE1" d="M553.32,169.701c-2.039,0.906-5.494,1.643-10.082,1.643c-10.082,0-16.879-6.117-16.879-16.199
	c0-8.553,3.852-15.236,9.629-19.088c3.965-2.775,8.666-4.078,14.047-4.078c4.135,0,7.25,0.963,8.326,1.643l-2.209,6.627
	c-1.133-0.566-3.625-1.246-6.91-1.246s-6.4,1.02-8.723,2.945c-3.229,2.605-5.268,6.967-5.268,12.291
	c0,6.061,3.398,10.139,10.139,10.139c2.662,0,5.324-0.453,7.25-1.246L553.32,169.701z"/>
<path fill="#27AAE1" d="M573.084,132.602l-2.832,14.896h13.877l2.832-14.896h8.156l-7.25,38.176h-8.156l3.002-16.029h-13.82
	l-3.059,16.029h-8.156l7.25-38.176H573.084z"/>
<path fill="#27AAE1" d="M620.203,154.578h-13.594l-1.756,9.232h15.236l-1.303,6.967h-23.393l7.25-38.176h22.6l-1.359,6.967h-14.387
	l-1.586,8.156h13.594L620.203,154.578z"/>
<path fill="#27AAE1" d="M631.867,133.338c2.549-0.623,6.4-1.02,10.195-1.02c3.625,0,7.363,0.566,10.025,2.209
	c2.492,1.473,4.248,3.908,4.248,7.477c0,5.664-3.795,9.176-8.666,10.762v0.227c2.266,0.963,3.229,3.512,3.625,6.967
	c0.453,4.248,0.793,9.232,1.473,10.818h-8.383c-0.34-1.02-0.736-4.305-1.133-9.006c-0.34-4.645-1.926-6.061-5.154-6.061h-2.492
	l-2.832,15.066h-8.1L631.867,133.338z M636.795,149.594h3.398c4.418,0,7.646-2.662,7.646-6.4c0-3.059-2.605-4.418-5.834-4.418
	c-1.529,0-2.492,0.113-3.172,0.283L636.795,149.594z"/>
</svg>
