<?xml version="1.0" encoding="utf-8"?>
<!-- Generator: Adobe Illustrator 16.2.0, SVG Export Plug-In . SVG Version: 6.00 Build 0)  -->
<!DOCTYPE svg PUBLIC "-//W3C//DTD SVG 1.1//EN" "http://www.w3.org/Graphics/SVG/1.1/DTD/svg11.dtd">
<svg version="1.1" id="Layer_1" xmlns="http://www.w3.org/2000/svg" xmlns:xlink="http://www.w3.org/1999/xlink" x="0px" y="0px"
	 width="841.89px" height="595.28px" viewBox="0 0 841.89 595.28" enable-background="new 0 0 841.89 595.28" xml:space="preserve">
<path fill="#808285" d="M152.642,242.728c0,5.534-5.394,10.02-12.048,10.02l0,0c-6.654,0-12.049-4.485-12.049-10.02v-54.523
	c0-5.534,5.395-10.019,12.049-10.019l0,0c6.654,0,12.048,4.484,12.048,10.019V242.728z"/>
<ellipse fill="#808285" cx="126.068" cy="126.196" rx="37.312" ry="37.412"/>
<path fill="#808285" d="M125.898,239.711c0,5.112-5.394,9.257-12.048,9.257l0,0c-6.655,0-12.049-4.145-12.049-9.257v-50.38
	c0-5.113,5.394-9.258,12.049-9.258l0,0c6.654,0,12.048,4.145,12.048,9.258V239.711z"/>
<g>
	<polyline fill="#FFFFFF" points="125.625,108.967 78.43,134.621 78.43,180.073 174.311,180.073 174.311,134.621 125.625,108.967 	
		"/>
	<g>
		<path fill="#FBB040" d="M121.84,102.491c-15.732,8.551-31.464,17.103-47.196,25.654c-2.301,1.25-3.715,3.897-3.715,6.476
			c0,15.151,0,30.302,0,45.452c0,4.089,3.412,7.5,7.5,7.5c31.96,0,63.921,0,95.881,0c4.088,0,7.5-3.411,7.5-7.5
			c0-15.15,0-30.301,0-45.452c0-2.552-1.407-5.26-3.715-6.476c-16.229-8.551-32.457-17.103-48.686-25.654
			c-8.549-4.505-16.131,8.441-7.57,12.952c16.229,8.551,32.457,17.103,48.686,25.654c-1.238-2.159-2.477-4.317-3.715-6.476
			c0,15.151,0,30.302,0,45.452c2.5-2.5,5-5,7.5-7.5c-31.96,0-63.921,0-95.881,0c2.5,2.5,5,5,7.5,7.5c0-15.15,0-30.301,0-45.452
			c-1.238,2.159-2.477,4.317-3.715,6.476c15.732-8.551,31.464-17.103,47.196-25.654C137.911,110.823,130.34,97.871,121.84,102.491
			L121.84,102.491z"/>
	</g>
</g>
<circle fill="#FFFFFF" stroke="#FFFFFF" stroke-width="0.75" stroke-miterlimit="10" cx="111.333" cy="184.069" r="8.541"/>
<rect x="101.849" y="197.576" fill="#808285" width="21.755" height="9.485"/>
<rect x="101.252" y="146.113" fill="#FBB040" width="18.162" height="18"/>
<rect x="133.327" y="146.113" fill="#FBB040" width="18.161" height="38.054"/>
<circle fill="#FFFFFF" stroke="#FFFFFF" stroke-width="0.75" stroke-miterlimit="10" cx="143.71" cy="183.743" r="8.542"/>
<rect x="129.92" y="197.249" fill="#808285" width="22.722" height="9.486"/>
<g>
	<g>
		<ellipse fill="#808285" cx="125.898" cy="76.423" rx="19.665" ry="22.278"/>
		<g>
			<path fill="#FFFFFF" d="M143.063,76.423c-0.283,9.899-6.567,19.39-17.165,19.778C115.311,96.589,109,85.728,108.734,76.423
				c-0.283-9.895,6.987-19.405,17.164-19.778C136.485,56.257,142.797,67.118,143.063,76.423c0.092,3.217,5.092,3.226,5,0
				c-0.363-12.707-8.793-24.288-22.165-24.778c-13.36-0.49-21.823,12.827-22.164,24.778c-0.363,12.701,9.324,24.307,22.164,24.778
				c13.361,0.49,21.824-12.826,22.165-24.778C148.155,73.197,143.155,73.206,143.063,76.423z"/>
		</g>
	</g>
</g>
<g>
	<polygon fill="#808285" points="115.044,46.872 134.395,46.872 144.305,66.375 159.879,77.548 90.031,77.548 108.909,62.209 	"/>
	<g>
		<path fill="#FFFFFF" d="M115.044,48.747c5.561,0,11.121,0,16.681,0c0.808,0,1.615,0,2.422,0c-0.878,0-1.762-1.696-0.759,0.279
			c1.522,2.996,3.044,5.991,4.567,8.987c1.855,3.652,3.221,8.416,6.632,10.863c4.782,3.43,9.563,6.86,14.345,10.291
			c0.315-1.165,0.631-2.33,0.946-3.494c-23.283,0-46.565,0-69.848,0c0.442,1.067,0.884,2.134,1.326,3.201
			c5.979-4.858,11.958-9.716,17.937-14.574c1.86-1.511,2.361-3.936,3.236-6.124c1.441-3.602,2.882-7.204,4.323-10.805
			c0.899-2.247-2.729-3.213-3.616-0.997c-1.325,3.313-2.65,6.626-3.976,9.939c-0.639,1.596-1.277,3.192-1.916,4.789
			c-0.487,1.217,0.367-0.322,0.079-0.088c-0.39,0.316-0.779,0.633-1.169,0.95c-5.85,4.753-11.699,9.506-17.549,14.259
			c-1.321,1.073-0.188,3.201,1.326,3.201c23.283,0,46.565,0,69.848,0c1.989,0,2.394-2.456,0.946-3.494
			c-2.73-1.958-5.46-3.917-8.189-5.875c-1.7-1.22-3.4-2.439-5.101-3.659c-0.606-0.435-1.212-0.87-1.818-1.305
			c-1.016-0.729,0.349,0.618,0.102,0.133c-3.269-6.433-6.537-12.865-9.806-19.297c-0.294-0.579-0.989-0.929-1.619-0.929
			c-6.45,0-12.9,0-19.35,0C112.626,44.997,112.626,48.747,115.044,48.747z"/>
	</g>
</g>
<g>
	<path fill="#808285" d="M198.315,151.82c2.592-0.432,5.905-0.672,9.409-0.672c6.049,0,10.225,1.248,13.201,3.744
		c3.121,2.544,5.041,6.385,5.041,11.905c0,5.76-1.968,10.081-5.041,12.865c-3.216,2.928-8.353,4.417-14.641,4.417
		c-3.456,0-6.048-0.192-7.969-0.432V151.82z M204.22,179.23c0.816,0.144,2.064,0.144,3.264,0.144
		c7.681,0.048,12.241-4.177,12.241-12.385c0.048-7.153-4.081-11.233-11.473-11.233c-1.872,0-3.216,0.144-4.032,0.336V179.23z"/>
	<path fill="#808285" d="M235.036,173.71c0.144,4.224,3.456,6.048,7.201,6.048c2.736,0,4.704-0.384,6.48-1.056l0.864,4.081
		c-2.016,0.816-4.8,1.44-8.161,1.44c-7.584,0-12.049-4.656-12.049-11.809c0-6.48,3.937-12.577,11.425-12.577
		c7.585,0,10.081,6.241,10.081,11.377c0,1.104-0.096,1.968-0.192,2.497H235.036z M245.309,169.582
		c0.048-2.16-0.912-5.712-4.849-5.712c-3.648,0-5.185,3.312-5.424,5.712H245.309z"/>
	<path fill="#808285" d="M255.627,167.901c0-3.168-0.048-5.424-0.192-7.537h5.137l0.192,4.464h0.192
		c1.152-3.313,3.889-4.993,6.385-4.993c0.576,0,0.912,0.048,1.392,0.144v5.569c-0.48-0.096-1.008-0.192-1.728-0.192
		c-2.833,0-4.752,1.824-5.281,4.464c-0.096,0.528-0.192,1.152-0.192,1.824v12.097h-5.904V167.901z"/>
	<path fill="#808285" d="M288.794,151.388v32.355h-5.905v-32.355H288.794z"/>
	<path fill="#808285" d="M295.609,167.325c0-2.688-0.048-4.944-0.192-6.96h5.089l0.24,3.456h0.144
		c1.152-1.824,3.264-3.984,7.201-3.984c3.072,0,5.472,1.729,6.48,4.32h0.096c0.816-1.296,1.776-2.256,2.88-2.928
		c1.296-0.912,2.785-1.392,4.705-1.392c3.888,0,7.825,2.641,7.825,10.129v13.777h-5.761V170.83c0-3.888-1.344-6.192-4.176-6.192
		c-2.016,0-3.504,1.44-4.128,3.12c-0.144,0.576-0.288,1.296-0.288,1.968v14.017h-5.761v-13.537c0-3.264-1.296-5.568-4.032-5.568
		c-2.208,0-3.696,1.728-4.225,3.36c-0.24,0.576-0.336,1.248-0.336,1.92v13.825h-5.76V167.325z"/>
	<path fill="#808285" d="M336.313,167.325c0-2.688-0.048-4.944-0.192-6.96h5.088l0.24,3.456h0.144
		c1.152-1.824,3.264-3.984,7.201-3.984c3.072,0,5.473,1.729,6.48,4.32h0.096c0.816-1.296,1.776-2.256,2.88-2.928
		c1.296-0.912,2.785-1.392,4.705-1.392c3.888,0,7.825,2.641,7.825,10.129v13.777h-5.76V170.83c0-3.888-1.344-6.192-4.177-6.192
		c-2.016,0-3.504,1.44-4.128,3.12c-0.144,0.576-0.288,1.296-0.288,1.968v14.017h-5.761v-13.537c0-3.264-1.296-5.568-4.032-5.568
		c-2.208,0-3.696,1.728-4.225,3.36c-0.24,0.576-0.336,1.248-0.336,1.92v13.825h-5.76V167.325z"/>
	<path fill="#808285" d="M399.242,171.837c0,8.593-6.048,12.433-12.001,12.433c-6.625,0-11.713-4.56-11.713-12.049
		c0-7.681,5.041-12.385,12.097-12.385C394.585,159.836,399.242,164.733,399.242,171.837z M381.625,172.078
		c0,4.512,2.208,7.921,5.808,7.921c3.36,0,5.713-3.313,5.713-8.017c0-3.648-1.632-7.825-5.665-7.825
		C383.305,164.157,381.625,168.189,381.625,172.078z"/>
	<path fill="#808285" d="M403.896,183.743c0.096-1.584,0.192-4.176,0.192-6.577V149.66h5.904v13.921h0.096
		c1.44-2.256,3.984-3.745,7.488-3.745c5.712,0,9.792,4.752,9.746,11.857c0,8.4-5.329,12.577-10.609,12.577
		c-3.024,0-5.712-1.152-7.393-4.032h-0.096l-0.288,3.504H403.896z M409.992,174.094c0,0.48,0.048,0.96,0.144,1.392
		c0.624,2.353,2.688,4.128,5.232,4.128c3.696,0,5.953-2.976,5.953-7.681c0-4.128-1.968-7.489-5.905-7.489
		c-2.4,0-4.56,1.729-5.232,4.32c-0.096,0.432-0.192,0.96-0.192,1.536V174.094z"/>
	<path fill="#808285" d="M438.456,153.836c0,1.776-1.296,3.168-3.36,3.168c-1.969,0-3.265-1.392-3.265-3.168
		c0-1.824,1.345-3.216,3.313-3.216C437.16,150.62,438.408,152.012,438.456,153.836z M432.168,183.743v-23.378h5.951v23.378H432.168z
		"/>
	<path fill="#808285" d="M444.455,149.66h5.952v34.083h-5.952V149.66z"/>
	<path fill="#808285" d="M463.08,153.836c0,1.776-1.297,3.168-3.361,3.168c-1.968,0-3.264-1.392-3.264-3.168
		c0-1.824,1.344-3.216,3.313-3.216C461.783,150.62,463.031,152.012,463.08,153.836z M456.791,183.743v-23.378h5.952v23.378H456.791z
		"/>
	<path fill="#808285" d="M473.254,173.71c0.145,4.224,3.457,6.048,7.201,6.048c2.736,0,4.705-0.384,6.48-1.056l0.865,4.081
		c-2.018,0.816-4.801,1.44-8.162,1.44c-7.584,0-12.049-4.656-12.049-11.809c0-6.48,3.938-12.577,11.426-12.577
		c7.584,0,10.08,6.241,10.08,11.377c0,1.104-0.096,1.968-0.191,2.497H473.254z M483.527,169.582c0.049-2.16-0.912-5.712-4.848-5.712
		c-3.648,0-5.186,3.312-5.426,5.712H483.527z"/>
	<path fill="#808285" d="M493.846,167.325c0-2.688-0.047-4.944-0.191-6.96h5.186l0.287,3.504h0.145
		c1.008-1.824,3.553-4.033,7.439-4.033c4.08,0,8.305,2.641,8.305,10.033v13.873h-5.904v-13.201c0-3.36-1.248-5.904-4.465-5.904
		c-2.352,0-3.984,1.68-4.607,3.456c-0.191,0.528-0.24,1.248-0.24,1.92v13.729h-5.953V167.325z"/>
	<path fill="#FBB040" d="M536.334,145.567h22.373l-1.359,6.967h-14.16l-1.756,8.949h13.311l-1.359,6.91h-13.254l-2.889,15.35h-8.156
		L536.334,145.567z"/>
	<path fill="#FBB040" d="M573.26,145.567l-7.25,38.176h-8.156l7.25-38.176H573.26z"/>
	<path fill="#FBB040" d="M575.184,174.907c2.266,1.359,5.494,2.436,9.006,2.436c3.172,0,6.061-1.473,6.061-4.475
		c0-2.152-1.643-3.568-5.154-5.381c-4.078-2.209-7.93-5.154-7.93-10.139c0-7.703,6.74-12.404,15.066-12.404
		c4.645,0,7.363,1.02,9.006,1.926l-2.549,6.797c-1.246-0.68-3.965-1.756-7.137-1.699c-3.795,0-5.777,1.926-5.777,4.021
		c0,2.209,2.322,3.568,5.551,5.381c4.645,2.436,7.59,5.551,7.59,10.082c0,8.496-7.023,12.857-15.52,12.857
		c-5.324,0-9.119-1.359-10.932-2.719L575.184,174.907z"/>
	<path fill="#FBB040" d="M630.688,182.667c-2.039,0.906-5.494,1.643-10.082,1.643c-10.082,0-16.879-6.117-16.879-16.199
		c0-8.553,3.852-15.236,9.629-19.088c3.965-2.775,8.666-4.078,14.047-4.078c4.135,0,7.25,0.963,8.326,1.643l-2.209,6.627
		c-1.133-0.566-3.625-1.246-6.91-1.246s-6.4,1.02-8.723,2.945c-3.229,2.605-5.268,6.967-5.268,12.291
		c0,6.061,3.398,10.139,10.139,10.139c2.662,0,5.324-0.453,7.25-1.246L630.688,182.667z"/>
	<path fill="#FBB040" d="M650.451,145.567l-2.832,14.896h13.877l2.832-14.896h8.156l-7.25,38.176h-8.156l3.002-16.029h-13.82
		l-3.059,16.029h-8.156l7.25-38.176H650.451z"/>
	<path fill="#FBB040" d="M697.57,167.543h-13.594l-1.756,9.232h15.236l-1.303,6.967h-23.393l7.25-38.176h22.6l-1.359,6.967h-14.387
		l-1.586,8.156h13.594L697.57,167.543z"/>
	<path fill="#FBB040" d="M709.234,146.303c2.549-0.623,6.4-1.02,10.195-1.02c3.625,0,7.363,0.566,10.025,2.209
		c2.492,1.473,4.248,3.908,4.248,7.477c0,5.664-3.795,9.176-8.666,10.762v0.227c2.266,0.963,3.229,3.512,3.625,6.967
		c0.453,4.248,0.793,9.232,1.473,10.818h-8.383c-0.34-1.02-0.736-4.305-1.133-9.006c-0.34-4.645-1.926-6.061-5.154-6.061h-2.492
		l-2.832,15.066h-8.1L709.234,146.303z M714.162,162.559h3.398c4.418,0,7.646-2.662,7.646-6.4c0-3.059-2.605-4.418-5.834-4.418
		c-1.529,0-2.492,0.113-3.172,0.283L714.162,162.559z"/>
</g>
</svg>
